<svg width="228" height="184" viewBox="0 0 228 184" fill="none" xmlns="http://www.w3.org/2000/svg">
<path d="M183.924 162.661C178.853 162.862 174.046 162.259 169.502 160.851C164.955 159.446 160.768 157.369 156.94 154.619L149.63 162.393C148.674 163.428 147.426 163.977 145.887 164.038C144.347 164.099 143.06 163.652 142.024 162.695C140.988 161.739 140.44 160.491 140.378 158.951C140.317 157.412 140.765 156.124 141.721 155.089L148.895 147.321C145.849 143.723 143.445 139.692 141.682 135.228C139.915 130.763 138.931 125.995 138.729 120.924C138.247 108.79 142.048 98.3449 150.135 89.5883C158.221 80.8318 168.331 76.2121 180.466 75.7294L223.931 74L225.661 117.466C226.143 129.6 222.342 140.045 214.255 148.802C206.169 157.558 196.059 162.178 183.924 162.661ZM183.492 151.794C192.547 151.434 200.118 147.958 206.205 141.367C212.291 134.776 215.154 126.953 214.794 117.898L213.497 85.2987L180.898 86.5958C171.843 86.956 164.272 90.4317 158.185 97.0226C152.099 103.614 149.235 111.437 149.596 120.492C149.736 124.024 150.414 127.376 151.628 130.549C152.843 133.719 154.453 136.579 156.459 139.129L183.457 109.894C184.414 108.858 185.662 108.309 187.201 108.248C188.741 108.187 190.028 108.635 191.064 109.591C192.194 110.634 192.788 111.902 192.848 113.395C192.907 114.891 192.415 116.203 191.372 117.333L164.374 146.569C167.076 148.366 170.054 149.72 173.308 150.632C176.566 151.547 179.96 151.935 183.492 151.794Z" fill="#3C9E7A"/>
<path d="M183.492 151.794C192.547 151.434 200.118 147.958 206.205 141.367C212.291 134.776 215.154 126.953 214.794 117.898L213.497 85.2987L180.898 86.5958C171.843 86.956 164.272 90.4317 158.185 97.0226C152.099 103.614 149.235 111.437 149.596 120.492C149.736 124.024 150.414 127.376 151.628 130.549C152.843 133.719 154.453 136.579 156.459 139.129L183.457 109.894C184.414 108.858 185.662 108.309 187.201 108.248C188.741 108.187 190.028 108.635 191.064 109.591C192.194 110.634 192.788 111.902 192.848 113.395C192.907 114.891 192.415 116.203 191.372 117.333L164.374 146.569C167.076 148.366 170.054 149.72 173.308 150.632C176.566 151.547 179.96 151.935 183.492 151.794Z" fill="#6AB599"/>
<path d="M173.5 64.5C161 30 127.633 8 92 8C45.6081 8 8 45.6081 8 92C8 138.392 45.6081 176 92 176C116.023 176 137.69 165.916 153 149.75" stroke="#3C9E7A" stroke-width="15" stroke-linecap="round" stroke-linejoin="round"/>
<path d="M72.8862 117.733C71.9001 117.734 70.9475 117.378 70.2067 116.73L45.3895 95.1077C44.953 94.7272 44.6033 94.2583 44.3636 93.7322C44.124 93.2061 44 92.6352 44 92.0575C44 91.4799 44.124 90.9089 44.3636 90.3829C44.6033 89.8568 44.953 89.3878 45.3895 89.0073L70.2067 67.3854C71.0194 66.6773 72.0813 66.3197 73.1589 66.3912C74.2364 66.4627 75.2413 66.9575 75.9524 67.7667C76.6636 68.5759 77.0228 69.6333 76.951 70.7062C76.8791 71.7791 76.3822 72.7797 75.5695 73.4878L54.252 92.0575L75.5676 110.627C76.1914 111.17 76.634 111.89 76.8362 112.69C77.0384 113.49 76.9906 114.333 76.6992 115.105C76.4077 115.878 75.8865 116.543 75.2052 117.013C74.5238 117.482 73.7148 117.734 72.8862 117.733ZM110.112 117.733C109.283 117.734 108.474 117.483 107.792 117.014C107.11 116.544 106.589 115.879 106.297 115.106C106.006 114.334 105.958 113.491 106.16 112.691C106.362 111.89 106.805 111.17 107.429 110.627L128.746 92.0575L107.43 73.4878C106.618 72.7797 106.121 71.7791 106.049 70.7062C105.977 69.6333 106.336 68.5759 107.048 67.7667C107.759 66.9575 108.764 66.4627 109.841 66.3912C110.919 66.3197 111.981 66.6773 112.793 67.3854L137.61 89.0073C138.047 89.3878 138.397 89.8568 138.636 90.3829C138.876 90.9089 139 91.4799 139 92.0575C139 92.6352 138.876 93.2061 138.636 93.7322C138.397 94.2583 138.047 94.7272 137.61 95.1077L112.793 116.73C112.052 117.378 111.099 117.735 110.112 117.733ZM82.1926 127C81.5585 127 80.9333 126.852 80.3666 126.569C79.8 126.286 79.3076 125.875 78.9287 125.368C78.5498 124.862 78.2949 124.275 78.1843 123.653C78.0737 123.031 78.1105 122.393 78.2916 121.788L87.5981 90.8992L96.9045 60.0108C97.0447 59.4866 97.2892 58.9957 97.6234 58.5673C97.9576 58.1388 98.3747 57.7815 98.8502 57.5165C99.3256 57.2516 99.8496 57.0843 100.391 57.0246C100.933 56.9649 101.481 57.0141 102.003 57.1691C102.525 57.3242 103.01 57.582 103.431 57.9274C103.851 58.2727 104.197 58.6984 104.449 59.1795C104.701 59.6605 104.853 60.1869 104.897 60.7277C104.941 61.2684 104.876 61.8124 104.704 62.3275L86.0916 124.104C85.8412 124.94 85.3266 125.674 84.6241 126.196C83.9217 126.717 83.0689 126.999 82.1926 127Z" fill="#6AB599"/>
</svg>
